<?xml version="1.0" standalone="no"?>
<!DOCTYPE svg PUBLIC "-//W3C//DTD SVG 20010904//EN"
 "http://www.w3.org/TR/2001/REC-SVG-20010904/DTD/svg10.dtd">
<svg version="1.0" xmlns="http://www.w3.org/2000/svg"
 width="512.000000pt" height="512.000000pt" viewBox="0 0 512.000000 512.000000"
 preserveAspectRatio="xMidYMid meet">

<g transform="translate(0.000000,512.000000) scale(0.100000,-0.100000)"
fill="#000000" stroke="none">
<path d="M2415 5114 c-386 -36 -625 -113 -885 -282 -120 -78 -317 -278 -403
-407 -158 -239 -260 -531 -297 -852 -13 -117 -14 -348 -1 -438 65 -449 431
-1207 1025 -2120 241 -372 686 -1005 706 -1005 20 0 465 633 706 1005 594 913
960 1671 1025 2120 13 90 12 321 -1 438 -37 321 -139 613 -297 852 -86 129
-283 329 -403 407 -215 140 -441 224 -710 263 -96 14 -390 26 -465 19z m350
-600 c78 -18 219 -74 280 -113 293 -185 458 -498 442 -836 -20 -411 -287 -740
-697 -861 -94 -27 -366 -27 -460 0 -166 49 -299 125 -413 235 -266 255 -354
633 -231 985 65 186 210 364 389 477 95 60 265 117 395 133 60 7 221 -4 295
-20z"/>
</g>
</svg>
