<?xml version="1.0" encoding="utf-8"?>
<!-- Generator: Adobe Illustrator 24.1.0, SVG Export Plug-In . SVG Version: 6.00 Build 0)  -->
<svg version="1.1" id="Layer_1" xmlns="http://www.w3.org/2000/svg" xmlns:xlink="http://www.w3.org/1999/xlink" x="0px" y="0px"
	 viewBox="0 0 512 512" style="enable-background:new 0 0 512 512;" xml:space="preserve">
<style type="text/css">
	.st0{fill:#F90606;}
</style>
<g transform="translate(0.000000,512.000000) scale(0.100000,-0.100000)">
	<path class="st0" d="M2415,5114c-386-36-625-113-885-282c-120-78-317-278-403-407c-158-239-260-531-297-852c-13-117-14-348-1-438
		c65-449,431-1207,1025-2120C2095,643,2540,10,2560,10s465,633,706,1005c594,913,960,1671,1025,2120c13,90,12,321-1,438
		c-37,321-139,613-297,852c-86,129-283,329-403,407c-215,140-441,224-710,263C2784,5109,2490,5121,2415,5114z M2765,4514
		c78-18,219-74,280-113c293-185,458-498,442-836c-20-411-287-740-697-861c-94-27-366-27-460,0c-166,49-299,125-413,235
		c-266,255-354,633-231,985c65,186,210,364,389,477c95,60,265,117,395,133C2530,4541,2691,4530,2765,4514z"/>
</g>
</svg>
